<svg width="400" height="400" viewBox="0 0 400 400" xmlns="http://www.w3.org/2000/svg">
  <ellipse cx="200" cy="350" rx="60" ry="15" fill="#FFB800" opacity="0.2">
    <animate attributeName="rx" values="50;70;50" dur="3s" repeatCount="indefinite" />
  </ellipse>

  <g>
    <animateTransform attributeName="transform" type="translate" values="0,0; 0,-15; 0,0" dur="3s" repeatCount="indefinite" />
    
    <path d="M140,150 Q200,130 260,150 L270,280 Q200,310 130,280 Z" fill="#2C3E50" />
    
    <rect x="160" y="180" width="80" height="90" rx="40" fill="#1A2632" stroke="#00D1FF" stroke-width="2" />
    <path d="M165,240 Q200,220 235,240 L235,260 Q200,280 165,260 Z" fill="#FFB800" />
    <circle cx="185" cy="245" r="3" fill="#FFF" opacity="0.5" />
    <circle cx="215" cy="250" r="3" fill="#FFF" opacity="0.5" />

    <rect x="150" y="90" width="100" height="80" rx="30" fill="#34495E" />
    <rect x="160" y="105" width="80" height="50" rx="15" fill="#1A2632" />
    
    <rect x="175" y="120" width="15" height="15" rx="4" fill="#00D1FF" />
    <rect x="210" y="120" width="15" height="15" rx="4" fill="#00D1FF" />
    
    <g stroke="#FFB800" stroke-width="5" fill="none">
      <path d="M170,95 C160,70 140,60 130,40" />
      <path d="M230,95 C240,70 260,60 270,40" />
    </g>
    <ellipse cx="125" cy="40" rx="6" ry="10" fill="#FFB800" transform="rotate(-30 125 40)" />
    <ellipse cx="275" cy="40" rx="6" ry="10" fill="#FFB800" transform="rotate(30 275 40)" />

    <path d="M140,180 L100,220" stroke="#2C3E50" stroke-width="12" stroke-linecap="round" />
    <path d="M260,180 L300,220" stroke="#2C3E50" stroke-width="12" stroke-linecap="round" />
    
    <path d="M100,220 Q80,260 120,280" fill="none" stroke="#FFB800" stroke-width="4" stroke-dasharray="5,5" />
    <path d="M300,220 Q320,260 280,280" fill="none" stroke="#FFB800" stroke-width="4" stroke-dasharray="5,5" />
  </g>
</svg>
